<svg width="20" height="20" viewBox="0 0 20 20" fill="none" xmlns="http://www.w3.org/2000/svg">
<g clip-path="url(#clip0_2014_245633)">
<path d="M8.33268 18.3333C12.0146 18.3333 14.9993 15.3486 14.9993 11.6667C14.9993 7.98477 12.0146 5 8.33268 5C4.65078 5 1.66602 7.98477 1.66602 11.6667C1.66602 12.6963 1.89941 13.6713 2.31618 14.5419C2.45943 14.8411 2.50972 15.1801 2.42398 15.5005L2.15061 16.5222C1.93514 17.3275 2.67186 18.0642 3.47714 17.8487L4.49884 17.5754C4.81929 17.4896 5.15827 17.5399 5.45748 17.6832C6.32802 18.0999 7.30309 18.3333 8.33268 18.3333Z" stroke="white" stroke-width="1.5"/>
<path d="M14.9993 12.0862C15.0547 12.0631 15.1097 12.0391 15.1641 12.0142C15.4659 11.8764 15.8044 11.8248 16.1249 11.9106L16.5216 12.0167C17.3268 12.2322 18.0636 11.4955 17.8481 10.6902L17.7419 10.2935C17.6562 9.97302 17.7078 9.63448 17.8456 9.33274C18.1584 8.64796 18.3327 7.88665 18.3327 7.08464C18.3327 4.09309 15.9076 1.66797 12.916 1.66797C10.6641 1.66797 8.7332 3.04212 7.91602 4.99764" stroke="white" stroke-width="1.5"/>
<path d="M5.43182 11.668H5.43932M8.34075 11.668H8.34825M11.2499 11.668H11.2574" stroke="white" stroke-width="2" stroke-linecap="round" stroke-linejoin="round"/>
</g>
<defs>
<clipPath id="clip0_2014_245633">
<rect width="20" height="20" fill="white"/>
</clipPath>
</defs>
</svg>
