<svg width="26" height="26" viewBox="0 0 26 26" fill="none" xmlns="http://www.w3.org/2000/svg">
<g opacity="0.6">
<path d="M12.1289 9.59252L18.0742 1.60819C18.8912 0.511016 20.412 0.221602 21.5748 0.942089L17.1222 7.44121" stroke="#635BFF" stroke-width="1.09375" stroke-miterlimit="10" stroke-linecap="round" stroke-linejoin="round"/>
<path d="M10.7003 12.7322L9.19678 14.9268C8.73103 15.6067 8.09314 16.1443 7.36105 16.5227C7.05671 16.68 6.77247 16.8885 6.5214 17.148C5.38854 18.319 5.31537 20.1307 6.28204 21.3848C6.37716 21.5083 6.48228 21.6262 6.5975 21.7376C7.22066 22.3405 8.04119 22.6645 8.9081 22.6501C9.77497 22.6358 10.5844 22.2847 11.1871 21.6615C12.4316 20.3751 12.3975 18.316 11.1111 17.0718L11.1075 17.0685C10.9085 16.8762 10.8773 16.5684 11.0337 16.3401L13.9884 12.0273M6.50077 21.6889C5.57025 22.322 5.02138 23.4093 5.08279 24.5486M9.70078 18.5297C9.74395 18.5715 9.78346 18.6158 9.81907 18.6621C10.1817 19.1325 10.1543 19.812 9.72926 20.2513C9.50317 20.4851 9.19956 20.6168 8.8744 20.6222C8.54923 20.6275 8.24143 20.506 8.00768 20.2799C7.52549 19.8132 7.51237 19.0408 7.97914 18.5583C8.44596 18.0757 9.21825 18.0629 9.70078 18.5297Z" stroke="#635BFF" stroke-width="1.09375" stroke-miterlimit="10" stroke-linecap="round" stroke-linejoin="round"/>
<ellipse cx="13.0796" cy="10.7691" rx="0.487798" ry="0.487805" fill="#635BFF"/>
<path d="M9.87439 10.8362L12.687 12.5861L23.0458 7.65571C24.2809 7.06781 24.8607 5.63239 24.3803 4.35156L9.33008 10.8008" stroke="#635BFF" stroke-width="1.09375" stroke-miterlimit="10" stroke-linecap="round" stroke-linejoin="round"/>
<path d="M10.8746 10.1353L7.22387 11.6996C6.96954 11.8086 6.67364 11.7181 6.52379 11.4854L6.52115 11.4813C5.55112 9.9774 3.53797 9.5433 2.03409 10.5136C1.30556 10.9836 0.803668 11.7092 0.620938 12.5567C0.43816 13.4042 0.596304 14.2722 1.06635 15.0007C1.15327 15.1354 1.24844 15.2615 1.35103 15.3788C2.39306 16.5711 4.18431 16.8518 5.55346 15.9685C5.85687 15.7727 6.11672 15.5345 6.33023 15.2666C6.84383 14.6221 7.49529 14.101 8.25279 13.7764L11.9893 12.1753M4.45381 14.2641C3.88968 14.6281 3.13466 14.465 2.77071 13.9012C2.59438 13.6278 2.53506 13.3023 2.60364 12.9844C2.67223 12.6665 2.86047 12.3943 3.13373 12.218C3.64734 11.8866 4.31918 11.9919 4.7101 12.4392C4.74854 12.4831 4.7843 12.5305 4.81688 12.581C5.18078 13.1451 5.0179 13.9002 4.45381 14.2641Z" stroke="#635BFF" stroke-width="1.09375" stroke-miterlimit="10" stroke-linecap="round" stroke-linejoin="round"/>
</g>
</svg>
