<svg width="31" height="31" viewBox="0 0 31 31" fill="none" xmlns="http://www.w3.org/2000/svg">
<g opacity="0.6">
<path d="M14.5547 11.511L21.689 1.92982C22.6694 0.61322 24.4944 0.265922 25.8897 1.13051L20.5466 8.92945" stroke="#635BFF" stroke-width="1.3125" stroke-miterlimit="10" stroke-linecap="round" stroke-linejoin="round"/>
<path d="M12.8403 15.2755L11.0361 17.909C10.4772 18.7249 9.71177 19.3701 8.83326 19.8241C8.46806 20.0128 8.12697 20.263 7.82569 20.5744C6.46625 21.9797 6.37845 24.1537 7.53845 25.6587C7.6526 25.8068 7.77874 25.9483 7.917 26.082C8.6648 26.8054 9.64943 27.1943 10.6897 27.177C11.73 27.1598 12.7012 26.7385 13.4246 25.9907C14.9179 24.447 14.877 21.976 13.3333 20.4831L13.329 20.479C13.0902 20.2483 13.0528 19.8789 13.2404 19.605L16.7861 14.4297M7.80092 26.0236C6.6843 26.7832 6.02565 28.0881 6.09935 29.4552M11.6409 22.2326C11.6927 22.2827 11.7401 22.3359 11.7829 22.3914C12.218 22.9559 12.1851 23.7713 11.6751 24.2985C11.4038 24.579 11.0395 24.737 10.6493 24.7435C10.2591 24.7499 9.88972 24.6041 9.60921 24.3327C9.03059 23.7727 9.01484 22.8458 9.57497 22.2668C10.1352 21.6877 11.0619 21.6724 11.6409 22.2326Z" stroke="#635BFF" stroke-width="1.3125" stroke-miterlimit="10" stroke-linecap="round" stroke-linejoin="round"/>
<ellipse cx="15.693" cy="12.9233" rx="0.585358" ry="0.585365" fill="#635BFF"/>
<path d="M11.8468 13.0023L15.222 15.1021L27.6525 9.18568C29.1346 8.4802 29.8303 6.7577 29.2538 5.2207L11.1936 12.9598" stroke="#635BFF" stroke-width="1.3125" stroke-miterlimit="10" stroke-linecap="round" stroke-linejoin="round"/>
<path d="M13.0495 12.1631L8.66865 14.0403C8.36344 14.1711 8.00837 14.0625 7.82854 13.7833L7.82538 13.7784C6.66134 11.9737 4.24557 11.4527 2.44091 12.6171C1.56668 13.1812 0.964401 14.0518 0.745126 15.0688C0.525792 16.0859 0.715565 17.1274 1.27962 18.0016C1.38393 18.1633 1.49813 18.3146 1.62123 18.4554C2.87167 19.886 5.02117 20.223 6.66415 19.1629C7.02824 18.928 7.34006 18.6421 7.59627 18.3207C8.2126 17.5473 8.99434 16.922 9.90335 16.5325L14.3871 14.6112M5.34458 17.1177C4.66761 17.5545 3.76159 17.3587 3.32486 16.6822C3.11325 16.3542 3.04207 15.9636 3.12437 15.582C3.20667 15.2006 3.43256 14.874 3.76048 14.6624C4.3768 14.2647 5.18302 14.3911 5.65212 14.9278C5.69825 14.9805 5.74116 15.0373 5.78026 15.0979C6.21694 15.7749 6.02148 16.681 5.34458 17.1177Z" stroke="#635BFF" stroke-width="1.3125" stroke-miterlimit="10" stroke-linecap="round" stroke-linejoin="round"/>
</g>
</svg>
