<svg width="45" height="51" viewBox="0 0 45 51" fill="none" xmlns="http://www.w3.org/2000/svg">
<g opacity="0.6">
<path d="M21.3211 19.0749L15.2617 13.0156" stroke="#635BFF" stroke-width="2.1875" stroke-miterlimit="10" stroke-linecap="round" stroke-linejoin="round"/>
<path d="M18.3425 22.0554L12.2832 15.9961" stroke="#635BFF" stroke-width="2.1875" stroke-miterlimit="10" stroke-linecap="round" stroke-linejoin="round"/>
<path d="M24.3015 16.0945L18.2422 10.0352" stroke="#635BFF" stroke-width="2.1875" stroke-miterlimit="10" stroke-linecap="round" stroke-linejoin="round"/>
<path d="M27.28 13.114L21.2207 7.05469" stroke="#635BFF" stroke-width="2.1875" stroke-miterlimit="10" stroke-linecap="round" stroke-linejoin="round"/>
<path d="M30.2624 10.1336L24.2031 4.07422" stroke="#635BFF" stroke-width="2.1875" stroke-miterlimit="10" stroke-linecap="round" stroke-linejoin="round"/>
<path d="M33.241 7.15306L27.1816 1.09375" stroke="#635BFF" stroke-width="2.1875" stroke-miterlimit="10" stroke-linecap="round" stroke-linejoin="round"/>
<path d="M37.8428 5.79696C37.0198 4.97393 35.6853 4.97393 34.8623 5.79696L16.9825 23.6768C16.1595 24.4999 16.1595 25.8343 16.9825 26.6573C17.8055 27.4804 19.14 27.4804 19.963 26.6573L37.8428 8.77744C38.6658 7.95442 38.6658 6.61998 37.8428 5.79696Z" stroke="#635BFF" stroke-width="2.1875" stroke-miterlimit="10" stroke-linecap="round" stroke-linejoin="round"/>
<path d="M16.4036 30.2183L37.4552 9.16678C38.714 7.90795 40.755 7.90795 42.0139 9.16678C44.1955 11.3484 44.1955 14.8855 42.0139 17.0672L27.9167 31.1642C26.127 32.9539 23.463 33.5455 21.0841 32.6816L5.41104 48.3548C4.42343 49.3424 2.82216 49.3424 1.83446 48.3548C0.846848 47.3671 0.846848 45.7659 1.83446 44.7782L16.3935 30.2192L16.4036 30.2183Z" stroke="#635BFF" stroke-width="2.1875" stroke-miterlimit="10" stroke-linecap="round" stroke-linejoin="round"/>
</g>
</svg>
