<svg width="48" height="37" viewBox="0 0 48 37" fill="none" xmlns="http://www.w3.org/2000/svg">
<g opacity="0.7">
<path d="M47.359 8.8689L23.9923 1.07464C20.6773 -0.0308543 17.7453 -0.280322 15.0285 0.311895C12.2612 0.915175 9.76399 2.37823 7.39437 4.78451C5.53466 6.67169 2.10858 10.6661 0.0581749 16.215C-0.0796372 16.5879 0.0327687 17.0071 0.338487 17.2611C0.644392 17.5151 1.07705 17.5486 1.4183 17.3448C3.96116 15.8261 8.94312 13.1104 12.2461 11.8543C17.1212 9.99962 20.8445 10.6914 26.0099 12.6165L46.7351 20.339C46.8413 20.3786 46.9521 20.398 47.0624 20.398C47.2511 20.398 47.4381 20.3411 47.5973 20.2304C47.8496 20.0552 48 19.7675 48 19.4605V9.75821C47.9999 9.3548 47.7418 8.99659 47.359 8.8689ZM46.1249 18.1107L26.6645 10.8596C23.4378 9.65696 20.6451 8.89374 17.7861 8.89374C15.8045 8.89374 13.7908 9.26049 11.5794 10.1018C9.0454 11.0656 5.58003 12.8454 2.8986 14.3339C4.80022 10.4239 7.27381 7.57816 8.73002 6.10047C12.9026 1.86317 17.4268 0.861737 23.399 2.85345L46.1249 10.4338V18.1107Z" fill="#635BFF"/>
<path d="M46.4166 22.3594C42.0183 26.5384 32.5902 29.5716 23.9986 29.5716C15.4063 29.5716 5.97929 26.5385 1.58346 22.3596C1.20809 22.0028 0.614748 22.0179 0.258031 22.3931C-0.0986871 22.7684 -0.0836872 23.3618 0.291499 23.7185C1.55721 24.9217 3.17008 26.0289 5.02736 27.0069C4.18033 28.3926 3.06462 29.2173 1.63456 29.5141C1.12756 29.6194 0.801966 30.1157 0.907154 30.6226C0.999028 31.0654 1.38912 31.3698 1.82412 31.3698C1.88721 31.3698 1.95134 31.3635 2.01556 31.3501C4.01449 30.9352 5.59342 29.753 6.71992 27.8323C8.40113 28.5914 10.2353 29.2512 12.1606 29.7919C11.4307 31.1646 10.4051 32.0319 9.04547 32.4289C8.54851 32.574 8.26323 33.0946 8.40835 33.5916C8.52788 34.0009 8.90194 34.2666 9.30788 34.2666C9.39488 34.2666 9.48338 34.2544 9.57103 34.2288C11.5567 33.6491 13.0492 32.3185 14.0181 30.2698C15.6525 30.6526 17.3358 30.9495 19.0334 31.1493C18.8709 32.7951 18.2127 34.0379 17.0317 34.93C16.6186 35.2421 16.5366 35.83 16.8487 36.2431C17.033 36.4872 17.3135 36.6156 17.5975 36.6156C17.7943 36.6156 17.9927 36.5539 18.1619 36.4261C19.7677 35.2131 20.686 33.5015 20.9005 31.3293C21.9352 31.4067 22.9705 31.4469 23.9986 31.4469C25.0266 31.4469 26.0619 31.4067 27.0966 31.3293C27.3113 33.5019 28.2305 35.2137 29.8383 36.4265C30.0073 36.554 30.2055 36.6156 30.4022 36.6156C30.6864 36.6156 30.9671 36.4869 31.1514 36.2427C31.4632 35.8293 31.3809 35.2414 30.9675 34.9296C29.7853 34.0378 29.1264 32.7951 28.9637 31.1492C30.6617 30.9494 32.3454 30.6524 33.9802 30.2694C34.9525 32.319 36.4455 33.6497 38.4288 34.2288C38.5165 34.2544 38.6049 34.2666 38.6919 34.2666C39.0979 34.2666 39.4719 34.0009 39.5915 33.5916C39.7366 33.0946 39.4513 32.574 38.9544 32.4289C37.5966 32.0325 36.5707 31.1651 35.8382 29.7915C37.7637 29.2506 39.598 28.5907 41.2795 27.8315C42.4061 29.7527 43.9852 30.9352 45.9844 31.3501C46.0487 31.3635 46.1127 31.3698 46.1758 31.3698C46.6108 31.3698 47.0009 31.0653 47.0928 30.6226C47.198 30.1157 46.8723 29.6194 46.3654 29.5141C44.9351 29.2172 43.8193 28.3923 42.9722 27.0062C44.8293 26.0285 46.4422 24.9216 47.7082 23.7187C48.0835 23.3621 48.0988 22.7687 47.7421 22.3933C47.3854 22.0179 46.7921 22.0028 46.4166 22.3594Z" fill="#635BFF"/>
</g>
</svg>
