<svg width="50" height="50" viewBox="0 0 50 50" fill="none" xmlns="http://www.w3.org/2000/svg">
<g opacity="0.7">
<path d="M19.5888 16.65H4.89491L0.976562 3.81771C2.84584 2.81146 6.92926 1.00609 12.2419 0.976922C17.7024 0.946873 21.633 2.80893 23.5072 3.81771C22.2011 8.0626 20.895 12.4051 19.5888 16.65Z" stroke="#635BFF" stroke-width="1.95122" stroke-miterlimit="10" stroke-linecap="round" stroke-linejoin="round"/>
<path d="M6.26673 43.2978L4.89648 16.6484H19.5904L18.2201 43.2978C18.0566 46.4793 15.4292 48.9751 12.2434 48.9751C9.05767 48.9751 6.43034 46.4793 6.26673 43.2978Z" stroke="#635BFF" stroke-width="1.95122" stroke-miterlimit="10" stroke-linecap="round" stroke-linejoin="round"/>
<path d="M7.83398 8.8125L10.7727 16.6493" stroke="#635BFF" stroke-width="1.95122" stroke-miterlimit="10" stroke-linecap="round" stroke-linejoin="round"/>
<path d="M16.6497 8.8125L13.7109 16.6493" stroke="#635BFF" stroke-width="1.95122" stroke-miterlimit="10" stroke-linecap="round" stroke-linejoin="round"/>
<path d="M18.3287 41.1406H6.1543" stroke="#635BFF" stroke-width="1.95122" stroke-miterlimit="10" stroke-linecap="round" stroke-linejoin="round"/>
<path d="M18.6314 35.2617H5.85156" stroke="#635BFF" stroke-width="1.95122" stroke-miterlimit="10" stroke-linecap="round" stroke-linejoin="round"/>
<path d="M33.1281 43.2978L31.7578 16.6484H46.4517L45.0815 43.2978C44.9179 46.4793 42.2906 48.9751 39.1049 48.9751C35.919 48.9751 33.2917 46.4793 33.1281 43.2978Z" stroke="#635BFF" stroke-width="1.95122" stroke-miterlimit="10" stroke-linecap="round" stroke-linejoin="round"/>
<path d="M45.1929 41.1406H33.0176" stroke="#635BFF" stroke-width="1.95122" stroke-miterlimit="10" stroke-linecap="round" stroke-linejoin="round"/>
<path d="M45.4957 35.2617H32.7148" stroke="#635BFF" stroke-width="1.95122" stroke-miterlimit="10" stroke-linecap="round" stroke-linejoin="round"/>
<path d="M27.4258 1.01172L48.9769 6.85583L46.4521 16.6518H31.7581L27.4258 1.01172Z" stroke="#635BFF" stroke-width="1.95122" stroke-miterlimit="10" stroke-linecap="round" stroke-linejoin="round"/>
<path d="M35.8599 3.29688L34.7148 7.83337" stroke="#635BFF" stroke-width="1.95122" stroke-miterlimit="10" stroke-linecap="round" stroke-linejoin="round"/>
<path d="M42.4346 7.83328L41.7812 4.90234" stroke="#635BFF" stroke-width="1.95122" stroke-miterlimit="10" stroke-linecap="round" stroke-linejoin="round"/>
</g>
</svg>
