<svg width="44" height="50" viewBox="0 0 44 50" fill="none" xmlns="http://www.w3.org/2000/svg">
<g opacity="0.7">
<path d="M16.3391 44.1719H10.1445V48.9782" stroke="#635BFF" stroke-width="1.95121" stroke-miterlimit="10" stroke-linecap="round" stroke-linejoin="round"/>
<path d="M16.3398 48.9781H42.9213V34.7361C42.9213 33.5027 41.912 32.4961 40.6785 32.4961H18.5799C17.3493 32.4961 16.3399 33.5027 16.3399 34.7361V48.9781H16.3398Z" stroke="#635BFF" stroke-width="1.95121" stroke-miterlimit="10" stroke-linecap="round" stroke-linejoin="round"/>
<path d="M16.3383 39.3672H3.96289" stroke="#635BFF" stroke-width="1.95121" stroke-miterlimit="10" stroke-linecap="round" stroke-linejoin="round"/>
<path d="M40.17 32.4953V27.9766H19.0918V32.4953" stroke="#635BFF" stroke-width="1.95121" stroke-miterlimit="10" stroke-linecap="round" stroke-linejoin="round"/>
<path d="M37.993 27.9748C39.3674 26.5423 40.2855 23.8985 38.9747 20.793C36.4305 23.4782 35.0893 23.8958 32.5976 23.8958H23.6071C20.9661 23.8958 20.1806 25.9561 20.6922 27.9748" stroke="#635BFF" stroke-width="1.95121" stroke-miterlimit="10" stroke-linecap="round" stroke-linejoin="round"/>
<path d="M16.3386 48.9764H5.6944C4.74309 48.9764 3.96319 48.1965 3.96319 47.2452V39.3665L0.976562 5.60591V2.66904C0.976562 1.73988 1.73978 0.976562 2.66895 0.976562H23.8136C24.7456 0.976562 25.506 1.73988 25.506 2.66904V5.60591L23.8883 23.8966" stroke="#635BFF" stroke-width="1.95121" stroke-miterlimit="10" stroke-linecap="round" stroke-linejoin="round"/>
<path d="M29.6321 43.6969C32.6437 43.6969 35.1022 42.364 35.1022 40.7352C35.1022 39.1036 32.6436 37.7734 29.6321 37.7734C26.6178 37.7734 24.1621 39.1036 24.1621 40.7352C24.1621 42.364 26.6178 43.6969 29.6321 43.6969Z" stroke="#635BFF" stroke-width="1.95121" stroke-miterlimit="10" stroke-linecap="round" stroke-linejoin="round"/>
<path d="M18.2168 14.7773H8.26953V20.4935H18.2168V14.7773Z" stroke="#635BFF" stroke-width="1.95121" stroke-miterlimit="10" stroke-linecap="round" stroke-linejoin="round"/>
<path d="M0.976562 5.60547H25.506" stroke="#635BFF" stroke-width="1.95121" stroke-miterlimit="10" stroke-linecap="round" stroke-linejoin="round"/>
</g>
</svg>
