<svg width="50" height="50" viewBox="0 0 50 50" fill="none" xmlns="http://www.w3.org/2000/svg">
<g opacity="0.7">
<path d="M40.6655 35.2612H33.3086V30.3633H40.6655C42.0125 30.3633 43.1045 31.4553 43.1045 32.8023V32.8222C43.1045 34.1692 42.0125 35.2612 40.6655 35.2612Z" stroke="#635BFF" stroke-width="1.95122" stroke-miterlimit="10" stroke-linecap="round" stroke-linejoin="round"/>
<path d="M33.3122 37.2217L26.4551 38.2013V27.4258L33.3122 28.4054V37.2217Z" stroke="#635BFF" stroke-width="1.95122" stroke-miterlimit="10" stroke-linecap="round" stroke-linejoin="round"/>
<path d="M26.4515 30.3633H22.5332V35.2612H26.4515V30.3633Z" stroke="#635BFF" stroke-width="1.95122" stroke-miterlimit="10" stroke-linecap="round" stroke-linejoin="round"/>
<path d="M43.1055 32.8139C46.3515 32.8139 48.983 30.1824 48.983 26.9364V23.5078" stroke="#635BFF" stroke-width="1.95122" stroke-miterlimit="10" stroke-linecap="round" stroke-linejoin="round"/>
<path d="M18.6184 35.5843C17.0881 34.0541 17.0881 31.5731 18.6184 30.043" stroke="#635BFF" stroke-width="1.95122" stroke-miterlimit="10" stroke-linecap="round" stroke-linejoin="round"/>
<path d="M3.05192 23.5088L21.2332 15.544C23.7009 14.4629 24.8249 11.5861 23.7439 9.11852L23.7279 9.08204C22.6468 6.61433 19.7701 5.49033 17.3024 6.57131L4.48285 12.1872C1.52168 13.4845 0.172705 16.9366 1.46997 19.8978L3.05192 23.5088Z" stroke="#635BFF" stroke-width="1.95122" stroke-miterlimit="10" stroke-linecap="round" stroke-linejoin="round"/>
<path d="M23.8946 9.50781L29.9827 12.1747C32.956 13.4773 34.3106 16.9436 33.0079 19.917L31.4354 23.5062L17.2441 17.2888" stroke="#635BFF" stroke-width="1.95122" stroke-miterlimit="10" stroke-linecap="round" stroke-linejoin="round"/>
<path d="M3.05272 23.5078C2.75886 29.574 2.73633 29.5362 2.73633 30.364C2.73633 38.4064 7.67642 45.675 15.2379 48.602C16.5294 49.1017 17.9565 49.1027 19.2503 48.602C24.4215 46.6008 28.3664 42.5677 30.3441 37.6463" stroke="#635BFF" stroke-width="1.95122" stroke-miterlimit="10" stroke-linecap="round" stroke-linejoin="round"/>
<path d="M31.6648 28.1706L31.4336 23.5078" stroke="#635BFF" stroke-width="1.95122" stroke-miterlimit="10" stroke-linecap="round" stroke-linejoin="round"/>
<path d="M12.3438 40.1602C14.7443 43.5209 19.7391 43.5209 22.1396 40.1602" stroke="#635BFF" stroke-width="1.95122" stroke-miterlimit="10" stroke-linecap="round" stroke-linejoin="round"/>
<path d="M8.91602 29.3828C10.3478 30.5282 12.3823 30.5282 13.814 29.3828" stroke="#635BFF" stroke-width="1.95122" stroke-miterlimit="10" stroke-linecap="round" stroke-linejoin="round"/>
<path d="M6.61665 11.2515C6.5187 10.7773 6.46875 10.2895 6.46875 9.79285C6.46875 4.92329 11.2932 0.976562 17.2443 0.976562C23.1953 0.976562 28.0198 4.92329 28.0198 9.79285C28.0198 10.2895 27.9698 10.7764 27.8719 11.2505" stroke="#635BFF" stroke-width="1.95122" stroke-miterlimit="10" stroke-linecap="round" stroke-linejoin="round"/>
<path d="M39.1875 30.3633V35.2613" stroke="#635BFF" stroke-width="1.95122" stroke-miterlimit="10" stroke-linecap="round" stroke-linejoin="round"/>
</g>
</svg>
