<svg width="51" height="50" viewBox="0 0 51 50" fill="none" xmlns="http://www.w3.org/2000/svg">
<g opacity="0.7">
<path d="M22.2828 37.2383H18.4592C13.2879 37.2383 9.0957 41.4209 9.0957 46.5804V48.9787H41.0517V46.5804C41.0517 41.421 36.8596 37.2383 31.6882 37.2383H27.8647" stroke="#635BFF" stroke-width="1.95768" stroke-miterlimit="10" stroke-linecap="round" stroke-linejoin="round"/>
<path d="M27.769 35.2109V37.8018C27.769 39.2921 26.5632 40.5002 25.0759 40.5002C23.5885 40.5002 22.3828 39.2921 22.3828 37.8018V35.2109" stroke="#635BFF" stroke-width="1.95768" stroke-miterlimit="10" stroke-linecap="round" stroke-linejoin="round"/>
<path d="M39.2336 21.1093C39.3072 20.8375 39.3463 20.5517 39.3463 20.257C39.3463 18.7432 38.3118 17.468 36.9023 17.082" stroke="#635BFF" stroke-width="1.95768" stroke-miterlimit="10" stroke-linecap="round" stroke-linejoin="round"/>
<path d="M13.5391 24.8242C14.0742 30.7216 19.1034 35.2118 25.0336 35.2118H25.1135C31.0254 35.2118 36.0417 30.7493 36.6029 24.8789" stroke="#635BFF" stroke-width="1.95768" stroke-miterlimit="10" stroke-linecap="round" stroke-linejoin="round"/>
<path d="M13.2329 17.0898C11.8315 17.4809 10.8047 18.7523 10.8047 20.2605C10.8047 20.5682 10.8475 20.866 10.9273 21.1485" stroke="#635BFF" stroke-width="1.95768" stroke-miterlimit="10" stroke-linecap="round" stroke-linejoin="round"/>
<path d="M12.8574 12.8959C12.9431 7.55485 16.7348 2.74365 22.1966 1.52147C22.8661 1.37171 24.5614 1.20002 25.3694 1.24035" stroke="#635BFF" stroke-width="1.95768" stroke-miterlimit="10" stroke-linecap="round" stroke-linejoin="round"/>
<path d="M25.1571 10.3555C23.9041 10.478 22.7892 10.6235 21.9716 10.7955C19.2232 11.3736 16.8968 12.8865 15.2344 14.8931" stroke="#635BFF" stroke-width="1.95768" stroke-miterlimit="10" stroke-linecap="round" stroke-linejoin="round"/>
<path d="M37.2904 12.9209C37.2163 7.56978 33.4212 2.74547 27.9508 1.52133C27.2813 1.37156 26.6127 1.28004 25.9501 1.24343C19.9533 0.911998 19.3176 9.78187 25.2945 10.3665C26.5475 10.4891 27.6624 10.6345 28.4799 10.8065C31.2578 11.3908 33.6044 12.9299 35.2702 14.9686" stroke="#635BFF" stroke-width="1.95768" stroke-miterlimit="10" stroke-linecap="round" stroke-linejoin="round"/>
<path d="M22.1482 23.1641C21.2626 24.0379 19.827 24.0379 18.9414 23.1641" stroke="#635BFF" stroke-width="1.95768" stroke-miterlimit="10" stroke-linecap="round" stroke-linejoin="round"/>
<path d="M31.2068 23.1641C30.3212 24.0379 28.8856 24.0379 28 23.1641" stroke="#635BFF" stroke-width="1.95768" stroke-miterlimit="10" stroke-linecap="round" stroke-linejoin="round"/>
<path d="M28.9453 18.9272C30.0767 17.8107 31.9109 17.8107 33.0423 18.9272" stroke="#635BFF" stroke-width="1.95768" stroke-miterlimit="10" stroke-linecap="round" stroke-linejoin="round"/>
<path d="M17.1074 18.9272C18.2388 17.8107 20.073 17.8107 21.2044 18.9272" stroke="#635BFF" stroke-width="1.95768" stroke-miterlimit="10" stroke-linecap="round" stroke-linejoin="round"/>
<path d="M27.7939 28.7656C26.2932 30.2465 23.86 30.2465 22.3594 28.7656" stroke="#635BFF" stroke-width="1.95768" stroke-miterlimit="10" stroke-linecap="round" stroke-linejoin="round"/>
<path d="M43.1211 0.980469V8.31072C43.1211 9.85406 41.8725 11.1052 40.3322 11.1052C39.613 11.1052 38.9217 11.3836 38.4025 11.8821L35.5594 14.6122C35.1465 15.0087 35.0039 15.6108 35.1949 16.1509C35.4703 16.9293 36.3356 17.3229 37.1016 17.0184L42.9768 14.6831L42.8124 18.5043L37.3376 22.4991C36.5353 23.0846 36.2603 24.1581 36.682 25.0583C37.2414 26.2527 38.7565 26.6276 39.8066 25.8316L45.5767 21.4571C47.8185 19.7577 49.1358 17.1037 49.1358 14.2871V0.980469H43.1211Z" stroke="#635BFF" stroke-width="1.95768" stroke-miterlimit="10" stroke-linecap="round" stroke-linejoin="round"/>
<path d="M6.9932 0.980469V8.31072C6.9932 9.85406 8.24181 11.1052 9.78212 11.1052C10.5013 11.1052 11.1926 11.3836 11.7118 11.8821L14.5549 14.6122C14.9678 15.0087 15.1104 15.6108 14.9194 16.1509C14.644 16.9293 13.7787 17.3229 13.0127 17.0184L7.13748 14.6831L7.30193 18.5043L12.7767 22.4991C13.579 23.0846 13.854 24.1581 13.4323 25.0583C12.8729 26.2527 11.3578 26.6276 10.3078 25.8316L4.53758 21.4571C2.29584 19.7578 0.978516 17.1038 0.978516 14.2872V0.980469H6.9932Z" stroke="#635BFF" stroke-width="1.95768" stroke-miterlimit="10" stroke-linecap="round" stroke-linejoin="round"/>
</g>
</svg>
