<svg width="50" height="44" viewBox="0 0 50 44" fill="none" xmlns="http://www.w3.org/2000/svg">
<g opacity="0.7">
<path d="M43.2992 42.1198H27.2271C24.0911 42.1198 21.5488 39.5775 21.5488 36.4415V36.2422H48.9775V36.4415C48.9775 39.5775 46.4352 42.1198 43.2992 42.1198Z" stroke="#635BFF" stroke-width="1.95123" stroke-miterlimit="10" stroke-linecap="round" stroke-linejoin="round"/>
<path d="M25.0801 36.2421C24.078 34.5141 23.5059 32.5059 23.5059 30.3645C23.5059 23.8728 28.7692 18.6094 35.261 18.6094C41.7528 18.6094 47.0162 23.8727 47.0162 30.3645C47.0162 32.5059 46.4441 34.5141 45.4419 36.2421" stroke="#635BFF" stroke-width="1.95123" stroke-miterlimit="10" stroke-linecap="round" stroke-linejoin="round"/>
<path d="M30.6348 36.2406C28.896 34.8711 27.7812 32.7483 27.7812 30.363C27.7812 26.2321 31.1305 22.8828 35.2615 22.8828C39.3924 22.8828 42.7417 26.232 42.7417 30.363C42.7417 32.7483 41.627 34.8711 39.8881 36.2406" stroke="#635BFF" stroke-width="1.95123" stroke-miterlimit="10" stroke-linecap="round" stroke-linejoin="round"/>
<path d="M12.7317 42.1192H3.9153C2.29227 42.1192 0.976562 40.8035 0.976562 39.1805V22.5273H15.6705V39.1805C15.6705 40.8035 14.3547 42.1192 12.7317 42.1192Z" stroke="#635BFF" stroke-width="1.95123" stroke-miterlimit="10" stroke-linecap="round" stroke-linejoin="round"/>
<path d="M13.7111 17.6289H2.93555V22.5269H13.7111V17.6289Z" stroke="#635BFF" stroke-width="1.95123" stroke-miterlimit="10" stroke-linecap="round" stroke-linejoin="round"/>
<path d="M11.7537 17.6297H4.89648V0.976562L11.7537 5.87453V17.6297Z" stroke="#635BFF" stroke-width="1.95123" stroke-miterlimit="10" stroke-linecap="round" stroke-linejoin="round"/>
<path d="M28.9786 42.1192H18.6087C16.9854 42.1192 15.6699 40.8036 15.6699 39.1805V22.5273H17.6291H26.5014" stroke="#635BFF" stroke-width="1.95123" stroke-miterlimit="10" stroke-linecap="round" stroke-linejoin="round"/>
<path d="M28.4045 20.8155V17.6289H17.6289V22.5269H26.5011" stroke="#635BFF" stroke-width="1.95123" stroke-miterlimit="10" stroke-linecap="round" stroke-linejoin="round"/>
<path d="M23.0176 17.6297V0.976562" stroke="#635BFF" stroke-width="1.95123" stroke-miterlimit="10" stroke-linecap="round" stroke-linejoin="round"/>
<path d="M20.5684 2.9375H25.4663" stroke="#635BFF" stroke-width="1.95123" stroke-miterlimit="10" stroke-linecap="round" stroke-linejoin="round"/>
<path d="M20.5684 6.85547H25.4663" stroke="#635BFF" stroke-width="1.95123" stroke-miterlimit="10" stroke-linecap="round" stroke-linejoin="round"/>
<path d="M20.5684 10.7734H25.4663" stroke="#635BFF" stroke-width="1.95123" stroke-miterlimit="10" stroke-linecap="round" stroke-linejoin="round"/>
<path d="M0.976562 27.4258H15.6705" stroke="#635BFF" stroke-width="1.95123" stroke-miterlimit="10" stroke-linecap="round" stroke-linejoin="round"/>
<path d="M23.877 27.4258H15.6699" stroke="#635BFF" stroke-width="1.95123" stroke-miterlimit="10" stroke-linecap="round" stroke-linejoin="round"/>
</g>
</svg>
