<svg width="51" height="46" viewBox="0 0 51 46" fill="none" xmlns="http://www.w3.org/2000/svg">
<g opacity="0.7">
<path d="M23.8158 23.817V21.8412V17.8896C23.8158 16.2525 22.489 14.9258 20.852 14.9258H4.05753C2.42051 14.9258 1.09375 16.2525 1.09375 17.8896V21.8412V37.6478V41.5994C1.09375 43.2364 2.42051 44.5632 4.05753 44.5632H16.9004" stroke="#635BFF" stroke-width="2.1875" stroke-miterlimit="10" stroke-linecap="round" stroke-linejoin="round"/>
<path d="M15.9142 9.98438H8.99884C7.36202 9.98438 6.03516 11.3112 6.03516 12.9482V14.924H18.878V12.9482C18.8779 11.3112 17.551 9.98438 15.9142 9.98438Z" stroke="#635BFF" stroke-width="2.1875" stroke-miterlimit="10" stroke-linecap="round" stroke-linejoin="round"/>
<path d="M14.9259 5.04688H9.98633V9.98641H14.9259V5.04688Z" stroke="#635BFF" stroke-width="2.1875" stroke-miterlimit="10" stroke-linecap="round" stroke-linejoin="round"/>
<path d="M17.0001 1.09375H8.99734C7.90609 1.09375 7.02148 1.97836 7.02148 3.0696C7.02148 4.16085 7.90609 5.04545 8.99734 5.04545H16.5898C17.3759 5.04545 18.1296 5.35775 18.6855 5.91347L19.6238 6.85184C20.3956 7.62356 21.6469 7.62356 22.4186 6.85184C23.1904 6.08011 23.1904 4.82876 22.4186 4.05704L21.1915 2.82989C20.0798 1.71825 18.5722 1.09375 17.0001 1.09375Z" stroke="#635BFF" stroke-width="2.1875" stroke-miterlimit="10" stroke-linecap="round" stroke-linejoin="round"/>
<path d="M13.9366 39.6215H1.09375V19.8633H23.8158" stroke="#635BFF" stroke-width="2.1875" stroke-miterlimit="10" stroke-linecap="round" stroke-linejoin="round"/>
<path d="M33.6958 44.561H16.9013C15.2645 44.561 13.9375 43.2341 13.9375 41.5972V32.706C13.9375 31.0691 15.2645 29.7422 16.9013 29.7422H33.6958C35.3326 29.7422 36.6596 31.069 36.6596 32.706V41.5972C36.6596 43.234 35.3326 44.561 33.6958 44.561Z" stroke="#635BFF" stroke-width="2.1875" stroke-miterlimit="10" stroke-linecap="round" stroke-linejoin="round"/>
<path d="M32.7074 29.744H17.8887V26.7802C17.8887 25.1434 19.2156 23.8164 20.8524 23.8164H29.7437C31.3805 23.8164 32.7075 25.1433 32.7075 26.7802V29.744H32.7074Z" stroke="#635BFF" stroke-width="2.1875" stroke-miterlimit="10" stroke-linecap="round" stroke-linejoin="round"/>
<path d="M36.6595 34.6836H13.9375" stroke="#635BFF" stroke-width="2.1875" stroke-miterlimit="10" stroke-linecap="round" stroke-linejoin="round"/>
<path d="M30.8194 24.0179L29.185 11.3508C28.9563 9.57809 30.337 8.00781 32.1244 8.00781H46.1291C47.9164 8.00781 49.2972 9.57809 49.0685 11.3508L45.5482 38.633" stroke="#635BFF" stroke-width="2.1875" stroke-miterlimit="10" stroke-linecap="round" stroke-linejoin="round"/>
<path d="M33.6934 44.5604H42.5846C44.2216 44.5604 45.5484 43.2336 45.5484 41.5966V38.6328H41.5967V40.6087H36.6571" stroke="#635BFF" stroke-width="2.1875" stroke-miterlimit="10" stroke-linecap="round" stroke-linejoin="round"/>
<path d="M48.8663 12.9492H29.3945" stroke="#635BFF" stroke-width="2.1875" stroke-miterlimit="10" stroke-linecap="round" stroke-linejoin="round"/>
<path d="M46.1866 33.6953H36.6582" stroke="#635BFF" stroke-width="2.1875" stroke-miterlimit="10" stroke-linecap="round" stroke-linejoin="round"/>
</g>
</svg>
