<svg width="51" height="51" viewBox="0 0 51 51" fill="none" xmlns="http://www.w3.org/2000/svg">
<g opacity="0.6">
<path d="M24.2676 19.185L36.1581 3.21637C37.7921 1.02203 40.8337 0.443204 43.1593 1.88418L34.2542 14.8824" stroke="#635BFF" stroke-width="2.1875" stroke-miterlimit="10" stroke-linecap="round" stroke-linejoin="round"/>
<path d="M21.3966 25.4605L18.3897 29.8497C17.4582 31.2094 16.1824 32.2847 14.7182 33.0414C14.1095 33.356 13.541 33.773 13.0389 34.292C10.7732 36.6342 10.6268 40.2575 12.5602 42.7658C12.7504 43.0126 12.9607 43.2484 13.1911 43.4714C14.4374 44.677 16.0785 45.3251 17.8123 45.2963C19.546 45.2676 21.1648 44.5654 22.3704 43.3191C24.8592 40.7463 24.791 36.628 22.2182 34.1398L22.2112 34.133C21.8131 33.7485 21.7507 33.1328 22.0635 32.6762L27.9729 24.0508M12.9976 43.374C11.1366 44.64 10.0388 46.8148 10.1617 49.0933M19.3976 37.0556C19.484 37.1392 19.563 37.2277 19.6342 37.3202C20.3595 38.2611 20.3047 39.6201 19.4546 40.4988C19.0024 40.9663 18.3952 41.2296 17.7449 41.2404C17.0946 41.2512 16.479 41.0081 16.0114 40.5558C15.0471 39.6225 15.0208 38.0777 15.9544 37.1126C16.888 36.1476 18.4326 36.1219 19.3976 37.0556Z" stroke="#635BFF" stroke-width="2.1875" stroke-miterlimit="10" stroke-linecap="round" stroke-linejoin="round"/>
<ellipse cx="26.1729" cy="21.5381" rx="0.975597" ry="0.975609" fill="#635BFF"/>
<path d="M19.7449 21.6725L25.3702 25.1722L46.0877 15.3114C48.5579 14.1356 49.7175 11.2648 48.7566 8.70312L18.6562 21.6017" stroke="#635BFF" stroke-width="2.1875" stroke-miterlimit="10" stroke-linecap="round" stroke-linejoin="round"/>
<path d="M21.7491 20.2744L14.4477 23.4031C13.9391 23.621 13.3473 23.4401 13.0476 22.9748L13.0423 22.9666C11.1022 19.9587 7.07595 19.0905 4.06818 21.0311C2.61113 21.9712 1.60734 23.4223 1.24188 25.1173C0.87632 26.8124 1.19261 28.5483 2.13269 30.0053C2.30655 30.2748 2.49688 30.5269 2.70205 30.7615C4.78612 33.146 8.36861 33.7076 11.1069 31.9408C11.7137 31.5493 12.2334 31.0728 12.6605 30.537C13.6877 29.2481 14.9906 28.2059 16.5056 27.5567L23.9786 24.3546M8.90763 28.5322C7.77935 29.2601 6.26932 28.9338 5.54143 27.8062C5.18875 27.2596 5.07012 26.6086 5.20729 25.9727C5.34446 25.3369 5.72094 24.7926 6.26747 24.4399C7.29467 23.777 8.63836 23.9878 9.42021 24.8822C9.49708 24.9701 9.5686 25.0648 9.63377 25.1658C10.3616 26.2941 10.0358 27.8043 8.90763 28.5322Z" stroke="#635BFF" stroke-width="2.1875" stroke-miterlimit="10" stroke-linecap="round" stroke-linejoin="round"/>
</g>
</svg>
