<svg width="54" height="51" viewBox="0 0 54 51" fill="none" xmlns="http://www.w3.org/2000/svg">
<g opacity="0.7">
<path d="M11.4116 22.6363C11.8129 20.3664 10.2981 18.2009 8.02824 17.7996C5.75832 17.3982 3.59285 18.913 3.19152 21.1829C2.79019 23.4528 4.30497 25.6183 6.57488 26.0196C8.8448 26.421 11.0103 24.9062 11.4116 22.6363Z" stroke="#635BFF" stroke-width="2.07848" stroke-miterlimit="10" stroke-linecap="round" stroke-linejoin="round"/>
<path d="M16.6914 26.0841H26.0827V21.9102H16.6914" stroke="#635BFF" stroke-width="2.07848" stroke-miterlimit="10" stroke-linecap="round" stroke-linejoin="round"/>
<path d="M39.6467 20.8648L33.3857 17.7344H15.6466C13.3414 17.7344 11.4727 19.6031 11.4727 21.9083C11.4727 24.2135 13.3414 26.0822 15.6466 26.0822C17.3897 26.0822 48.1923 26.0822 50.0815 26.0822V20.8648H39.6467Z" stroke="#635BFF" stroke-width="2.07848" stroke-miterlimit="10" stroke-linecap="round" stroke-linejoin="round"/>
<path d="M1.03906 28.173C1.03906 29.3282 1.97521 30.2645 3.13001 30.2645H50.0787C51.2335 30.2645 52.1697 29.3283 52.1697 28.1735C52.1697 27.0182 51.2335 26.082 50.0787 26.082H3.13001C1.97521 26.082 1.03906 27.0182 1.03906 28.173Z" stroke="#635BFF" stroke-width="2.07848" stroke-miterlimit="10" stroke-linecap="round" stroke-linejoin="round"/>
<path d="M45.9275 34.4395H41.7367C40.5887 34.4395 39.6582 33.5089 39.6582 32.361V30.2656H48.006V32.361C48.006 33.5089 47.0755 34.4395 45.9275 34.4395Z" stroke="#635BFF" stroke-width="2.07848" stroke-miterlimit="10" stroke-linecap="round" stroke-linejoin="round"/>
<path d="M11.4725 34.4395H7.2816C6.13366 34.4395 5.20312 33.5089 5.20312 32.361V30.2656H13.551V32.361C13.551 33.5089 12.6205 34.4395 11.4725 34.4395Z" stroke="#635BFF" stroke-width="2.07848" stroke-miterlimit="10" stroke-linecap="round" stroke-linejoin="round"/>
<path d="M9.37997 49.0377C8.22735 49.0377 7.29297 48.1033 7.29297 46.9507V34.4375H11.467V46.9507C11.467 48.1033 10.5326 49.0377 9.37997 49.0377Z" stroke="#635BFF" stroke-width="2.07848" stroke-miterlimit="10" stroke-linecap="round" stroke-linejoin="round"/>
<path d="M43.8311 49.0377C42.6785 49.0377 41.7441 48.1033 41.7441 46.9507V34.4375H45.918V46.9507C45.918 48.1033 44.9837 49.0377 43.8311 49.0377Z" stroke="#635BFF" stroke-width="2.07848" stroke-miterlimit="10" stroke-linecap="round" stroke-linejoin="round"/>
<path d="M20.8664 15.6495C20.8664 16.8021 19.4649 17.7364 17.7359 17.7364C16.007 17.7364 14.6055 16.8021 14.6055 15.6495C14.6055 14.4969 16.007 13.5625 17.7359 13.5625C19.4649 13.5625 20.8664 14.4969 20.8664 15.6495Z" stroke="#635BFF" stroke-width="2.07848" stroke-miterlimit="10" stroke-linecap="round" stroke-linejoin="round"/>
<path d="M27.1281 15.6495C27.1281 16.8021 25.7266 17.7364 23.9976 17.7364C22.2687 17.7364 20.8672 16.8021 20.8672 15.6495C20.8672 14.4969 22.2687 13.5625 23.9976 13.5625C25.7266 13.5625 27.1281 14.4969 27.1281 15.6495Z" stroke="#635BFF" stroke-width="2.07848" stroke-miterlimit="10" stroke-linecap="round" stroke-linejoin="round"/>
<path d="M33.3878 15.6495C33.3878 16.8021 31.9862 17.7364 30.2574 17.7364C28.5285 17.7364 27.127 16.8021 27.127 15.6495C27.127 14.4969 28.5285 13.5625 30.2574 13.5625C31.9862 13.5625 33.3878 14.4969 33.3878 15.6495Z" stroke="#635BFF" stroke-width="2.07848" stroke-miterlimit="10" stroke-linecap="round" stroke-linejoin="round"/>
<path d="M30.2563 9.38686C30.2563 7.29996 29.2129 7.29996 29.2129 5.21296C29.2129 3.12596 30.2563 3.12596 30.2563 1.03906" stroke="#635BFF" stroke-width="2.07848" stroke-miterlimit="10" stroke-linecap="round" stroke-linejoin="round"/>
<path d="M23.9966 9.38686C23.9966 7.29996 22.9531 7.29996 22.9531 5.21296C22.9531 3.12596 23.9966 3.12596 23.9966 1.03906" stroke="#635BFF" stroke-width="2.07848" stroke-miterlimit="10" stroke-linecap="round" stroke-linejoin="round"/>
<path d="M17.7348 9.38686C17.7348 7.29996 16.6914 7.29996 16.6914 5.21296C16.6914 3.12596 17.7348 3.12596 17.7348 1.03906" stroke="#635BFF" stroke-width="2.07848" stroke-miterlimit="10" stroke-linecap="round" stroke-linejoin="round"/>
<path d="M30.2559 26.0823V17.7344" stroke="#635BFF" stroke-width="2.07848" stroke-miterlimit="10" stroke-linecap="round" stroke-linejoin="round"/>
</g>
</svg>
