<svg width="26" height="49" viewBox="0 0 26 49" fill="none" xmlns="http://www.w3.org/2000/svg">
<g opacity="0.6">
<path d="M12.2848 28.0139L7.5309 1.09375L4.80222 1.55236C2.36753 1.96153 0.732918 4.27667 1.16222 6.70797L7.57334 43.0135H18.3151L24.7263 6.70797C25.1556 4.27667 23.5211 1.96153 21.0863 1.55236L18.3577 1.09375L13.6038 28.0139" stroke="#635BFF" stroke-width="2.1875" stroke-miterlimit="10" stroke-linecap="round" stroke-linejoin="round"/>
<path d="M12.9434 43.015V35.3672" stroke="#635BFF" stroke-width="2.1875" stroke-miterlimit="10" stroke-linecap="round" stroke-linejoin="round"/>
<path d="M12.9448 35.3663C14.9585 35.3663 16.5909 33.7339 16.5909 31.7202C16.5909 29.7066 14.9585 28.0742 12.9448 28.0742C10.9312 28.0742 9.29883 29.7066 9.29883 31.7202C9.29883 33.7339 10.9312 35.3663 12.9448 35.3663Z" stroke="#635BFF" stroke-width="2.1875" stroke-miterlimit="10" stroke-linecap="round" stroke-linejoin="round"/>
<path d="M16.591 43.1211V47.8046H9.29883V43.1211" stroke="#635BFF" stroke-width="2.1875" stroke-miterlimit="10" stroke-linecap="round" stroke-linejoin="round"/>
</g>
</svg>
