<svg width="47" height="50" viewBox="0 0 47 50" fill="none" xmlns="http://www.w3.org/2000/svg">
<g opacity="0.7">
<path d="M41.0572 10.4258C43.3424 13.6604 44.5823 17.6582 44.3075 21.9248L42.7624 33.4609C42.2008 42.1852 34.8788 48.9772 26.0353 48.9772C17.1918 48.9772 9.86993 42.1852 9.30827 33.4609L7.875 22.7604" stroke="#635BFF" stroke-width="1.95122" stroke-miterlimit="10" stroke-linecap="round" stroke-linejoin="round"/>
<path d="M7.74414 19.9536C8.16834 10.4095 16.1401 2.67578 26.0364 2.67578C29.6345 2.67578 32.9782 3.69812 35.7973 5.45813" stroke="#635BFF" stroke-width="1.95122" stroke-miterlimit="10" stroke-linecap="round" stroke-linejoin="round"/>
<path d="M27.4644 29.1328C26.6776 29.9106 25.402 29.9106 24.6152 29.1328" stroke="#635BFF" stroke-width="1.95122" stroke-miterlimit="10" stroke-linecap="round" stroke-linejoin="round"/>
<path d="M31.8448 36.9215C30.4925 36.5181 29.501 34.6953 28.1892 34.6953C26.8777 34.6953 26.6399 35.4321 26.0035 35.4321C25.4635 35.4321 25.1292 34.6953 23.8177 34.6953C22.5058 34.6953 21.4188 36.6259 20.2044 36.9551C20.1129 36.9799 19.9363 37.0681 20.1805 37.2585C21.303 38.1338 21.6657 40.5633 26.0005 40.5633C30.4565 40.5633 30.9558 37.9027 31.9514 37.1389C32.1302 37.0018 31.904 36.9391 31.8448 36.9215Z" stroke="#635BFF" stroke-width="1.95122" stroke-miterlimit="10" stroke-linecap="round" stroke-linejoin="round"/>
<path d="M33.5114 26.4944C36.072 26.4944 38.1478 24.4424 38.1478 21.9113C38.1478 19.3801 36.072 17.3281 33.5114 17.3281C30.9508 17.3281 28.875 19.3801 28.875 21.9113C28.875 24.4424 30.9508 26.4944 33.5114 26.4944Z" stroke="#635BFF" stroke-width="1.95122" stroke-miterlimit="10" stroke-linecap="round" stroke-linejoin="round"/>
<path d="M18.5641 26.4944C21.1247 26.4944 23.2005 24.4424 23.2005 21.9113C23.2005 19.3801 21.1247 17.3281 18.5641 17.3281C16.0035 17.3281 13.9277 19.3801 13.9277 21.9113C13.9277 24.4424 16.0035 26.4944 18.5641 26.4944Z" stroke="#635BFF" stroke-width="1.95122" stroke-miterlimit="10" stroke-linecap="round" stroke-linejoin="round"/>
<path d="M43.5813 6.24594L45.4579 7.26048L43.5813 8.27501C42.1235 9.06321 40.9247 10.2481 40.1274 11.6893L39.101 13.5443L38.0747 11.6893C37.2773 10.2481 36.0787 9.06321 34.6207 8.27501L32.7441 7.26048L34.6207 6.24594C36.0786 5.45774 37.2773 4.27286 38.0747 2.83169L39.101 0.976562L40.1274 2.83159C40.9246 4.27276 42.1234 5.45774 43.5813 6.24594Z" stroke="#635BFF" stroke-width="1.95122" stroke-miterlimit="10" stroke-linecap="round" stroke-linejoin="round"/>
<path d="M8.67872 20.6395L10.0125 21.3606L8.67872 22.0817C7.64252 22.6419 6.79062 23.484 6.22398 24.5082L5.49452 25.8266L4.76506 24.5082C4.19832 23.4839 3.34642 22.6419 2.31032 22.0817L0.976562 21.3606L2.31032 20.6395C3.34652 20.0793 4.19842 19.2372 4.76506 18.213L5.49452 16.8945L6.22398 18.213C6.79062 19.2372 7.64262 20.0793 8.67872 20.6395Z" stroke="#635BFF" stroke-width="1.95122" stroke-miterlimit="10" stroke-linecap="round" stroke-linejoin="round"/>
<path d="M6.45703 3.15625V3.51518" stroke="#635BFF" stroke-width="1.95122" stroke-miterlimit="10" stroke-linecap="round" stroke-linejoin="round"/>
<path d="M6.45703 7.87109V8.23002" stroke="#635BFF" stroke-width="1.95122" stroke-miterlimit="10" stroke-linecap="round" stroke-linejoin="round"/>
<path d="M9.03773 5.69141H8.66992" stroke="#635BFF" stroke-width="1.95122" stroke-miterlimit="10" stroke-linecap="round" stroke-linejoin="round"/>
<path d="M4.25052 5.69141H3.88281" stroke="#635BFF" stroke-width="1.95122" stroke-miterlimit="10" stroke-linecap="round" stroke-linejoin="round"/>
</g>
</svg>
