<svg width="50" height="50" viewBox="0 0 50 50" fill="none" xmlns="http://www.w3.org/2000/svg">
<g opacity="0.7">
<mask id="path-1-inside-1_2013_190234" fill="white">
<path d="M16 0.976562H14.0488V25.9522H16V0.976562Z"/>
</mask>
<path d="M14.0488 0.976562V-0.974657H12.0976V0.976562H14.0488ZM16 0.976562H17.9513V-0.974657H16V0.976562ZM16 25.9522V27.9034H17.9513V25.9522H16ZM14.0488 25.9522H12.0976V27.9034H14.0488V25.9522ZM14.0488 0.976562V2.92778H16V0.976562V-0.974657H14.0488V0.976562ZM16 0.976562H14.0488V25.9522H16H17.9513V0.976562H16ZM16 25.9522V24.001H14.0488V25.9522V27.9034H16V25.9522ZM14.0488 25.9522H16V0.976562H14.0488H12.0976V25.9522H14.0488Z" fill="#635BFF" mask="url(#path-1-inside-1_2013_190234)"/>
<path d="M43.474 15.3465C44.5136 15.3465 45.3563 14.5038 45.3563 13.4643C45.3563 12.4247 44.5136 11.582 43.474 11.582C42.4345 11.582 41.5918 12.4247 41.5918 13.4643C41.5918 14.5038 42.4345 15.3465 43.474 15.3465Z" fill="#635BFF"/>
<path d="M11.4024 33.3672C10.3247 33.3672 9.45117 34.2407 9.45117 35.3184C9.45117 36.3961 10.3247 37.2696 11.4024 37.2696H24.6123L25.8845 45.3793C26.2095 47.4505 27.994 48.9769 30.0906 48.9769H42.8852C44.9818 48.9769 46.7664 47.4505 47.0913 45.3793L48.9758 33.3672H11.4024Z" stroke="#635BFF" stroke-width="1.95122" stroke-miterlimit="10" stroke-linecap="round" stroke-linejoin="round"/>
<path d="M48.8939 33.3677C47.2706 33.3677 45.9546 32.0517 45.9546 30.4284C45.9546 29.6908 46.2263 29.0166 46.6752 28.5006C47.1881 27.9044 47.498 27.1286 47.498 26.2805C47.498 25.1513 46.9482 24.151 46.1019 23.5312C46.0933 26.0047 44.0859 28.0072 41.6105 28.0072H33.1356C30.1934 28.0072 27.805 30.3775 27.7754 33.3127" stroke="#635BFF" stroke-width="1.95122" stroke-miterlimit="10" stroke-linecap="round" stroke-linejoin="round"/>
<path d="M0.976562 23.2188H10.4671" stroke="#635BFF" stroke-width="1.95122" stroke-miterlimit="10" stroke-linecap="round" stroke-linejoin="round"/>
<path d="M0.976562 19.3164H10.4671" stroke="#635BFF" stroke-width="1.95122" stroke-miterlimit="10" stroke-linecap="round" stroke-linejoin="round"/>
<path d="M0.976562 15.4141H10.4671" stroke="#635BFF" stroke-width="1.95122" stroke-miterlimit="10" stroke-linecap="round" stroke-linejoin="round"/>
<path d="M0.976562 11.5117H10.4671" stroke="#635BFF" stroke-width="1.95122" stroke-miterlimit="10" stroke-linecap="round" stroke-linejoin="round"/>
<path d="M0.976562 7.60938H10.4671" stroke="#635BFF" stroke-width="1.95122" stroke-miterlimit="10" stroke-linecap="round" stroke-linejoin="round"/>
<path d="M0.976562 3.70703H10.4671" stroke="#635BFF" stroke-width="1.95122" stroke-miterlimit="10" stroke-linecap="round" stroke-linejoin="round"/>
<path d="M20.1364 23.1355V20.4199C20.1364 18.1768 21.9548 16.3583 24.1979 16.3583H36.9146C37.9549 16.3583 38.9517 16.7614 39.7096 17.474C40.7367 18.4396 42.1346 19.015 43.6673 18.9631C46.5804 18.8644 48.9341 16.4628 48.9776 13.5484C49.0237 10.471 46.5429 7.96203 43.4761 7.96203C42.0043 7.96203 40.6679 8.54027 39.6807 9.48164C38.9378 10.1901 37.941 10.5699 36.9144 10.5699H24.1979C21.9548 10.5699 20.1364 8.75149 20.1364 6.50837V3.79295C20.1364 2.23754 18.8754 0.976562 17.32 0.976562H10.4688V25.9519H17.32C18.8754 25.9519 20.1364 24.6909 20.1364 23.1355Z" stroke="#635BFF" stroke-width="1.95122" stroke-miterlimit="10" stroke-linecap="round" stroke-linejoin="round"/>
</g>
</svg>
