<svg width="27" height="51" viewBox="0 0 27 51" fill="none" xmlns="http://www.w3.org/2000/svg">
<g opacity="0.7">
<path d="M16.2739 31.9526C16.2739 33.5757 14.9582 34.8914 13.3352 34.8914C11.7122 34.8914 10.3965 33.5757 10.3965 31.9526C10.3965 30.3296 13.3352 27.0547 13.3352 27.0547C13.3352 27.0547 16.2739 30.3296 16.2739 31.9526Z" stroke="#635BFF" stroke-width="2.1875" stroke-miterlimit="10" stroke-linecap="round" stroke-linejoin="round"/>
<path d="M22.6567 49.0925H4.02058C2.40409 49.0925 1.09375 47.7822 1.09375 46.1657V15.7745C1.09375 14.158 2.40409 12.8477 4.02058 12.8477H22.6567C24.2732 12.8477 25.5835 14.158 25.5835 15.7745V46.1657C25.5835 47.7822 24.2732 49.0925 22.6567 49.0925Z" stroke="#635BFF" stroke-width="2.1875" stroke-miterlimit="10" stroke-linecap="round" stroke-linejoin="round"/>
<path d="M19.7074 8.92969H6.97266V12.848H19.7074V8.92969Z" stroke="#635BFF" stroke-width="2.1875" stroke-miterlimit="10" stroke-linecap="round" stroke-linejoin="round"/>
<path d="M15.7866 1.09375H10.8887V8.93043H15.7866V1.09375Z" stroke="#635BFF" stroke-width="2.1875" stroke-miterlimit="10" stroke-linecap="round" stroke-linejoin="round"/>
<path d="M23.6257 4.03248L20.6869 1.09375H6.97266" stroke="#635BFF" stroke-width="2.1875" stroke-miterlimit="10" stroke-linecap="round" stroke-linejoin="round"/>
<path d="M25.5835 18.7266H1.09375V43.2163H25.5835V18.7266Z" stroke="#635BFF" stroke-width="2.1875" stroke-miterlimit="10" stroke-linecap="round" stroke-linejoin="round"/>
<path d="M21.6628 22.6445H5.00977V39.2976H21.6628V22.6445Z" stroke="#635BFF" stroke-width="2.1875" stroke-miterlimit="10" stroke-linecap="round" stroke-linejoin="round"/>
</g>
</svg>
